<svg xmlns="http://www.w3.org/2000/svg" width="370.387" height="370.387"><g style="display:inline" transform="translate(-599.398 -320.151)"><circle style="fill:#000" cx="784.415" cy="505.903" r="183.193"/><g transform="translate(44.905 57.573)"><path d="m714.677 360.792 7.813 22.266-82.618 196.094h37.11l50.781-125.977 10.352-27.539 9.18 27.54 30.859 87.5c2.539 7.421 5.273 13.671 8.007 18.75 2.735 5.273 5.665 9.57 8.985 12.694 3.32 3.32 7.031 5.665 11.133 7.227 4.101 1.563 8.789 2.148 14.257 2.148 5.47 0 11.72-.78 18.75-2.343v-27.93c-1.562.39-2.734.39-3.906.39h-3.515c-2.735 0-5.274-.195-7.227-.976-1.953-.781-3.906-1.953-5.469-3.71-1.562-1.563-3.125-3.907-4.492-6.837-1.562-2.734-2.93-6.445-4.492-10.937l-63.477-179.883c-3.71-10.156-7.617-18.555-11.718-25-4.102-6.25-8.594-11.133-13.282-14.649-4.882-3.515-10.156-5.859-15.625-7.03-5.468-1.173-11.523-1.759-18.164-1.759-4.297 0-8.984.586-14.453 1.368-5.469.976-10.351 2.148-14.648 3.515v28.711c4.101-1.367 8.203-2.539 12.5-3.32 4.297-.781 8.203-1.172 11.718-1.172 3.711 0 7.032.586 10.157 1.367 2.93.977 5.664 2.54 8.008 4.883 2.343 2.344 4.687 5.664 6.835 9.57 2.149 3.907 4.297 8.985 6.641 15.04z" style="fill:#0ff" aria-label="位"/><path d="m718.065 362.244 7.813 22.265-82.617 196.094h37.11l50.78-125.977 10.352-27.539 9.18 27.54 30.86 87.5c2.538 7.421 5.272 13.671 8.007 18.75 2.734 5.273 5.664 9.57 8.984 12.695 3.32 3.32 7.031 5.664 11.133 7.226 4.102 1.563 8.79 2.149 14.258 2.149 5.469 0 11.719-.781 18.75-2.344v-27.93c-1.563.391-2.735.391-3.906.391h-3.516c-2.734 0-5.273-.195-7.227-.977-1.953-.78-3.906-1.953-5.468-3.71-1.563-1.563-3.125-3.907-4.493-6.836-1.562-2.735-2.93-6.446-4.492-10.938L750.097 350.72c-3.711-10.156-7.617-18.554-11.719-25-4.102-6.25-8.594-11.133-13.281-14.648-4.883-3.516-10.157-5.86-15.625-7.031-5.469-1.172-11.524-1.758-18.164-1.758-4.297 0-8.985.586-14.453 1.367-5.47.976-10.352 2.148-14.649 3.516v28.71c4.102-1.367 8.203-2.539 12.5-3.32 4.297-.781 8.203-1.172 11.719-1.172 3.71 0 7.031.586 10.156 1.367 2.93.977 5.664 2.54 8.008 4.883 2.344 2.344 4.687 5.664 6.836 9.57 2.148 3.907 4.297 8.985 6.64 15.04z" style="fill:#ff0" transform="translate(-.586 -.21)" aria-label="位"/><path d="m721.157 363.663 7.813 22.266-82.617 196.094h37.109l50.781-125.977 10.352-27.539 9.18 27.539 30.859 87.5c2.539 7.422 5.273 13.672 8.008 18.75 2.734 5.273 5.664 9.57 8.984 12.695 3.32 3.32 7.031 5.664 11.133 7.227 4.101 1.562 8.789 2.148 14.258 2.148 5.468 0 11.718-.78 18.75-2.343v-27.93c-1.563.39-2.735.39-3.907.39h-3.515c-2.735 0-5.274-.195-7.227-.976-1.953-.781-3.906-1.953-5.468-3.711-1.563-1.562-3.125-3.906-4.493-6.836-1.562-2.734-2.93-6.445-4.492-10.937L753.19 352.14c-3.711-10.156-7.618-18.555-11.72-25-4.1-6.25-8.593-11.133-13.28-14.649-4.883-3.515-10.157-5.859-15.625-7.03-5.47-1.173-11.524-1.759-18.164-1.759-4.297 0-8.985.586-14.454 1.367-5.468.977-10.351 2.149-14.648 3.516v28.711c4.102-1.367 8.203-2.539 12.5-3.32 4.297-.782 8.203-1.172 11.719-1.172 3.71 0 7.031.586 10.156 1.367 2.93.977 5.664 2.54 8.008 4.883 2.344 2.344 4.687 5.664 6.836 9.57 2.148 3.906 4.297 8.985 6.64 15.04z" style="fill:#f0f" transform="translate(-.664 -.379)" aria-label="位"/><a transform="translate(-62.54 13.463)"><g style="fill:#000"><path d="m786.328 351.197 7.812 22.265-82.617 196.094h37.11l50.78-125.977 10.352-27.539 9.18 27.54 30.86 87.5c2.538 7.421 5.273 13.671 8.007 18.75 2.734 5.273 5.664 9.57 8.984 12.695 3.32 3.32 7.032 5.664 11.133 7.226 4.102 1.563 8.79 2.149 14.258 2.149 5.469 0 11.719-.782 18.75-2.344v-27.93c-1.562.39-2.734.39-3.906.39h-3.516c-2.734 0-5.273-.194-7.226-.976-1.954-.78-3.907-1.953-5.47-3.71-1.562-1.563-3.124-3.907-4.491-6.837-1.563-2.734-2.93-6.445-4.493-10.937L818.36 339.673c-3.711-10.156-7.617-18.555-11.719-25-4.101-6.25-8.594-11.133-13.281-14.648-4.883-3.516-10.156-5.86-15.625-7.032-5.469-1.171-11.524-1.757-18.164-1.757-4.297 0-8.985.586-14.453 1.367-5.47.976-10.352 2.148-14.649 3.515v28.711c4.102-1.367 8.203-2.539 12.5-3.32 4.297-.781 8.203-1.172 11.719-1.172 3.71 0 7.031.586 10.156 1.367 2.93.977 5.664 2.54 8.008 4.883 2.344 2.344 4.688 5.664 6.836 9.57 2.148 3.907 4.297 8.985 6.64 15.04z" style="fill:#fff" aria-label="位"/></g></a></g></g></svg>